<?xml version="1.0" encoding="utf-8"?>
<!-- Generator: Adobe Illustrator 19.0.0, SVG Export Plug-In . SVG Version: 6.00 Build 0)  -->
<svg version="1.1" id="Layer_1" xmlns="http://www.w3.org/2000/svg" xmlns:xlink="http://www.w3.org/1999/xlink" x="0px" y="0px"
	 viewBox="0 0 960 560" style="enable-background:new 0 0 960 560;" xml:space="preserve">
<style type="text/css">
	.st0{fill:#3FA9F5;stroke:#000000;stroke-width:2;stroke-miterlimit:10;}
	.st1{fill:#00A4D5;stroke:#000000;stroke-width:2;stroke-miterlimit:10;}
	.st2{fill:none;stroke:#000000;stroke-width:2;stroke-miterlimit:10;}
	.st3{fill:#FFFFFF;stroke:#000000;stroke-width:2;stroke-miterlimit:10;}
	.st4{fill:none;stroke:#000000;stroke-miterlimit:10;}
</style>
<path id="XMLID_24_" class="st0" d="M555.9,552.4l20.7-109.9h52.7c13.3,0,24.3-11.1,25.1-25.3l0.7-13.1l-2.3-121
	c-0.2-12.3-9.8-22.1-21.4-21.8l-31.2,1c-10.6,0.3-19.1,9.7-19.1,21L581,384.9c0,6.1,2.2,5.4-3.3,6.9l-12.7,2.8
	c-4.7,0.6-15.7,7.6-16.8,9.3c-4.8,7.4-6.3,12.9-7.1,17.2l-21.8,130.5L555.9,552.4z"/>
<path id="XMLID_25_" class="st1" d="M429.6,151l-47.3,23.6c-3.6,1.8-5.9,5.5-5.9,9.5V348h143.8V185.7c0-4-2.3-7.7-5.9-9.5
	l-50.2-25.3L429.6,151z"/>
<g id="XMLID_20_">
	<line id="XMLID_23_" class="st2" x1="571.5" y1="553.4" x2="590.5" y2="444.7"/>
	<line id="XMLID_22_" class="st2" x1="684.7" y1="551.5" x2="651" y2="444.7"/>
	<path id="XMLID_21_" class="st2" d="M577.7,446.4c27.5-0.7,55.1-1.1,83.1-1.1c1.7,0,5.2-0.6,8.4-1.6c18.4-5.6,29.6-60.6,28.1-101.1
		"/>
</g>
<circle id="XMLID_19_" class="st0" cx="614.1" cy="228" r="31.4"/>
<path id="XMLID_18_" class="st0" d="M624.9,304.4l-57.5,30.4c-0.9,0.5-1.9,0.7-2.9,0.7h-46.4c-5.6,0-9.3-5.7-7-10.8l0.9-2.1
	c1-2.2,3.1-3.6,5.5-3.7l47.7-1.7c1.3,0,2.5-0.5,3.5-1.3l37-28c0.1-0.1,0.2-0.1,0.3-0.2l4.7-3.1c2.1-1.4,4.8-1.7,7.2-0.9l0.6,0.2
	c5.8,2.1,9.6,7.6,9.6,13.7v1.3C628.2,301.2,626.9,303.3,624.9,304.4z"/>
<path id="XMLID_9_" class="st0" d="M345.6,552.4l-20.7-109.9h-52.7c-13.3,0-24.3-11.1-25.1-25.3l-0.7-13.1l2.3-121
	c0.2-12.3,9.8-22.1,21.4-21.8l31.2,1c10.6,0.3,19.1,9.7,19.1,21l0.2,101.5c0,6.1-2.2,5.4,3.3,6.9l12.7,2.8
	c4.7,0.6,15.7,7.6,16.8,9.3c4.8,7.4,6.3,12.9,7.1,17.2l21.8,130.5L345.6,552.4z"/>
<g id="XMLID_8_">
	<line id="XMLID_4_" class="st2" x1="330" y1="553.4" x2="311" y2="444.7"/>
	<line id="XMLID_5_" class="st2" x1="216.8" y1="551.5" x2="250.5" y2="444.7"/>
	<path id="XMLID_6_" class="st2" d="M323.8,446.4c-27.5-0.7-55.1-1.1-83.1-1.1c-1.7,0-5.2-0.6-8.4-1.6
		c-18.4-5.6-29.6-60.6-28.1-101.1"/>
</g>
<circle id="XMLID_7_" class="st0" cx="287.4" cy="228" r="31.4"/>
<path id="XMLID_26_" class="st1" d="M478.2,120.5c0,9.6-5.1,17.7-10.5,24.1c-5.7,6.7-12,11.6-20.8,11.6c-9.6,0-16.4-5.3-22.2-13
	c-4.7-6.2-9.2-13.9-9.2-22.7c0-19.7,14-35.7,31.4-35.7C464.2,84.8,478.2,100.7,478.2,120.5z"/>
<path id="XMLID_10_" class="st0" d="M276.6,304.4l57.5,30.4c0.9,0.5,1.9,0.7,2.9,0.7h46.4c5.6,0,9.3-5.7,7-10.8l-0.9-2.1
	c-1-2.2-3.1-3.6-5.5-3.7l-47.7-1.7c-1.3,0-2.5-0.5-3.5-1.3l-37-28c-0.1-0.1-0.2-0.1-0.3-0.2l-4.7-3.1c-2.1-1.4-4.8-1.7-7.2-0.9
	l-0.6,0.2c-5.8,2.1-9.6,7.6-9.6,13.7v1.3C273.3,301.2,274.6,303.3,276.6,304.4z"/>
<path id="XMLID_15_" class="st2" d="M337.9,60h-99c-8.6,0-15.9,6.3-15.9,14.9v73.5c0,8.6,7.3,14.6,15.9,14.6H293l14,23l19.2,26.4
	l3.4-23.4l2.6-26h5.7c8.6,0,17.1-6,17.1-14.6V74.9C355,66.3,346.5,60,337.9,60z"/>
<polygon id="XMLID_12_" class="st0" points="288.9,132 261.3,132 275.1,108.5 288.9,84.7 302.8,108.4 316.6,132 "/>
<rect id="XMLID_2_" x="370.2" y="357.4" class="st3" width="156.4" height="195"/>
<rect id="XMLID_3_" x="345.6" y="340.7" class="st3" width="205.6" height="16.7"/>
<line id="XMLID_11_" class="st2" x1="323" y1="392" x2="245" y2="392"/>
<line id="XMLID_13_" class="st2" x1="658" y1="392" x2="580" y2="392"/>
<path id="XMLID_17_" class="st2" d="M563.6,60h99c8.6,0,14.4,6.3,14.4,14.9v73.5c0,8.6-5.8,14.6-14.4,14.6h-54.1l-14,23l-19.2,26.4
	l-3.4-23.4l-2.6-26h-5.7c-8.6,0-18.6-6-18.6-14.6V74.9C545,66.3,555,60,563.6,60z"/>
<polygon id="XMLID_14_" class="st0" points="591.6,138 579.1,99.3 611.8,75.4 644.5,99.3 632,138 "/>
<path id="XMLID_27_" class="st3" d="M391.2,328.8l15-69.7c0.1-0.5,0.2-1.1,0.2-1.6v-34.6"/>
<path id="XMLID_28_" class="st3" d="M510.5,328.8l-17.1-69.7c-0.1-0.5-0.2-1.1-0.2-1.6v-34.6"/>
<polygon id="XMLID_30_" class="st4" points="444.6,156.1 437,219 447.2,231.1 456.6,219.4 451.5,156.2 "/>
</svg>
