<?xml version="1.0" encoding="utf-8"?>
<!-- Generator: Adobe Illustrator 19.0.0, SVG Export Plug-In . SVG Version: 6.00 Build 0)  -->
<svg version="1.1" id="Layer_1" xmlns="http://www.w3.org/2000/svg" xmlns:xlink="http://www.w3.org/1999/xlink" x="0px" y="0px"
	 viewBox="0 0 960 560" style="enable-background:new 0 0 960 560;" xml:space="preserve">
<style type="text/css">
	.st0{fill:none;stroke:#000000;stroke-width:2;stroke-miterlimit:10;}
	.st1{fill:#FFFFFF;stroke:#000000;stroke-width:2;stroke-miterlimit:10;}
	.st2{fill:none;stroke:#000000;stroke-miterlimit:10;}
</style>
<path id="XMLID_25_" class="st0" d="M429.8,152.3l-47,19.9c-3.6,1.5-5.9,4.6-5.9,8.1v137.7l15.9,1.4l-1.4,9.3
	c-0.2,1.8-1.7,3.4-2.8,4.8l-4,7h128.9l-2.9-9l-0.6-5.4c-0.5-3.7,2.3-6.9,6-6.9l3.7-1.1V181.6c0-3.4-2.3-6.5-5.8-8l-49.9-21.4
	l-15.9,6c-0.5,0.2-1,0.2-1.4,0L429.8,152.3z"/>
<g id="XMLID_20_">
	<line id="XMLID_23_" class="st0" x1="570.8" y1="552" x2="589.7" y2="443.9"/>
	<line id="XMLID_22_" class="st0" x1="683.4" y1="550.2" x2="649.8" y2="443.9"/>
	<path id="XMLID_21_" class="st0" d="M577,445.7c27.4-0.7,54.8-1,82.7-1c1.7,0,5.1-0.6,8.4-1.6c18.3-5.5,29.4-60.3,28-100.5"/>
</g>
<circle id="XMLID_19_" class="st0" cx="613.2" cy="228.4" r="31.2"/>
<path id="XMLID_31_" class="st0" d="M651.8,283.3c-0.2-12.3-9.8-22-21.3-21.6l-31,1c-10.6,0.3-19,9.6-19,20.9l0,23l-12.3,9.3
	c-1,0.8-2.2,1.2-3.5,1.3l-47.5,1.7c-2.4,0.1-4.5,1.5-5.4,3.6l-0.9,1.9c-2.3,5-0.1,10.6,5.4,10.6h47.7c1,0,2-0.1,2.9-0.6l13.6-7.1
	l-0.1,57.1c0,6.1,2.2,5.4-3.3,6.9l-12.6,2.8c-4.7,0.6-15.6,7.5-16.7,9.2c-4.7,7.4-6.2,12.9-7.1,17.1l-13.9,83.3l-0.5,46.5l29.1,0.5
	L575.9,441h52.4c13.3,0,24.2-10.7,25-24.8l0.7-12.8L651.8,283.3z"/>
<g id="XMLID_8_">
	<line id="XMLID_4_" class="st0" x1="330.7" y1="552" x2="311.8" y2="443.9"/>
	<line id="XMLID_5_" class="st0" x1="218.1" y1="550.2" x2="251.7" y2="443.9"/>
	<path id="XMLID_6_" class="st0" d="M324.5,445.7c-27.4-0.7-54.8-1-82.7-1c-1.7,0-5.1-0.6-8.4-1.6c-18.3-5.5-29.4-60.3-28-100.5"/>
</g>
<circle id="XMLID_7_" class="st0" cx="288.3" cy="228.4" r="31.2"/>
<path id="XMLID_26_" class="st0" d="M478.1,121.5c0,9.6-5.1,17.6-10.5,24c-5.7,6.7-11.9,11.5-20.7,11.5c-9.5,0-16.3-5.3-22-12.9
	c-4.6-6.2-9.2-13.8-9.2-22.6c0-19.6,14-35.5,31.2-35.5C464.1,86,478.1,101.9,478.1,121.5z"/>
<path id="XMLID_18_" class="st0" d="M390.7,324.4l-0.9-2c-1-2.1-3.1-3.5-5.4-3.6l-47.5-1.7c-1.3,0-2.5-0.5-3.5-1.2l-12.3-9.3l0-23
	c0-11.3-8.4-20.6-19-20.9l-31-1c-11.5-0.4-21,9.4-21.3,21.6l-2.3,120.3l0.7,12.6c0.8,14.1,11.7,24.8,25,24.8h52.4l20.6,109.6
	l24.5-1.8l-0.5-73l-9.3-55.5c-0.8-4.2-2.3-9.7-7.1-17.1c-1.1-1.7-12-8.6-16.7-9.2l-12.6-2.7c-5.5-1.5-3.3-0.8-3.3-6.9l-0.1-57.1
	l13.6,7.1c0.9,0.5,1.9,0.6,2.9,0.6h46.1C389.3,335,393,329.4,390.7,324.4z"/>
<g id="XMLID_13_">
	<path id="XMLID_15_" class="st0" d="M338.6,62h-98.5c-8.6,0-15.1,5.6-15.1,14.2v73.1c0,8.6,6.5,14.7,15.1,14.7h53.8l13.9,22.8
		L327,213l3.4-23.2l2.6-25.8h5.6c8.6,0,16.4-6.2,16.4-14.7V76.2C355,67.6,347.1,62,338.6,62z"/>
	<polygon id="XMLID_12_" class="st0" points="289.8,133 262.4,133 276.1,109.6 289.8,86 303.6,109.5 317.3,133 	"/>
</g>
<rect id="XMLID_2_" x="370.7" y="357.1" class="st0" width="155.5" height="193.9"/>
<rect id="XMLID_3_" x="346.2" y="340.5" class="st1" width="204.4" height="16.6"/>
<line id="XMLID_11_" class="st0" x1="324" y1="391" x2="246" y2="391"/>
<line id="XMLID_29_" class="st0" x1="654" y1="391" x2="579" y2="391"/>
<g id="XMLID_16_">
	<path id="XMLID_17_" class="st0" d="M562.9,62h98.5c8.6,0,13.6,5.6,13.6,14.2v73.1c0,8.6-5,14.7-13.6,14.7h-53.8l-13.9,22.8
		L574.5,213l-3.4-23.2l-2.6-25.8h-5.6c-8.6,0-17.9-6.2-17.9-14.7V76.2C545,67.6,554.4,62,562.9,62z"/>
	<polygon id="XMLID_14_" class="st0" points="590.8,139 578.3,100.5 610.9,76.7 643.4,100.5 631,139 	"/>
</g>
<path id="XMLID_27_" class="st1" d="M391.5,328.7l14.9-69.3c0.1-0.5,0.2-1.1,0.2-1.6v-34.4"/>
<path id="XMLID_28_" class="st1" d="M509.9,328.7l-16.7-69.3c-0.1-0.5-0.2-1.1-0.2-1.6v-34.4"/>
<polygon id="XMLID_30_" class="st2" points="444.6,157 437.1,219.5 447.2,231.5 456.6,219.9 451.5,157.1 "/>
</svg>
