<?xml version="1.0" encoding="utf-8"?>
<!-- Generator: Adobe Illustrator 19.0.0, SVG Export Plug-In . SVG Version: 6.00 Build 0)  -->
<svg version="1.1" id="Layer_1" xmlns="http://www.w3.org/2000/svg" xmlns:xlink="http://www.w3.org/1999/xlink" x="0px" y="0px"
	 viewBox="0 0 960 560" style="enable-background:new 0 0 960 560;" xml:space="preserve">
<style type="text/css">
	.st0{fill:#3FA9F5;}
</style>
<path class="st0" d="M322.8,108.7l80.8-21.8c5.4-1.5,11.1,1.2,13.4,6.3l42.6,91.9c2.3,5,0.8,11-3.7,14.2l-32.1,23.1
	c-5.7,4.1-6.4,12.4-1.5,17.4l99,100.5c4.8,4.8,12.7,4.5,17-0.7l27.1-32.4c3.3-4,9-5.2,13.7-3l88.1,41.1c5.1,2.4,7.7,8.1,6.2,13.5
	l-23.2,84.2c-1.5,5.5-6.8,9-12.4,8.4l-58-6.8c-2.7-0.3-4.9-1.4-7.3-3.2c-40.4-19.6-105-57.7-164.5-126
	c-48.4-55.6-76.1-110.7-91.3-149.1c-0.3-0.9-1-2-1.7-3.8c-0.5-1.3-0.7-2.7-0.8-4.2v-38.2C314.3,114.6,317.8,110.1,322.8,108.7z"/>
</svg>
