<?xml version="1.0" encoding="utf-8"?>
<!-- Generator: Adobe Illustrator 19.0.0, SVG Export Plug-In . SVG Version: 6.00 Build 0)  -->
<svg version="1.1" id="Layer_1" xmlns="http://www.w3.org/2000/svg" xmlns:xlink="http://www.w3.org/1999/xlink" x="0px" y="0px"
	 viewBox="0 0 960 560" style="enable-background:new 0 0 960 560;" xml:space="preserve">
<style type="text/css">
	.st0{fill:#E2725B;}
</style>
<path class="st0" d="M237.1,38.4L358.4,5.6c8.1-2.2,16.6,1.8,20.2,9.4l63.9,137.9c3.5,7.5,1.1,16.4-5.6,21.3l-48.1,34.6
	c-8.6,6.2-9.6,18.6-2.2,26.1l148.6,150.9c7.1,7.3,19,6.8,25.5-1l40.7-48.6c5-6,13.4-7.9,20.5-4.6L754,393.2
	c7.6,3.6,11.6,12.1,9.3,20.2l-34.9,126.4c-2.3,8.2-10.2,13.5-18.7,12.5l-87-10.2c-4.1-0.5-7.4-2.2-10.9-4.9
	c-60.7-29.4-157.5-86.5-246.9-189.1c-72.6-83.4-114.2-166.2-137-223.7c-0.5-1.4-1.5-3.1-2.6-5.7c-0.8-2-1.1-4.1-1.2-6.3V55
	C224.3,47.2,229.6,40.4,237.1,38.4z"/>
</svg>
