<?xml version="1.0" encoding="utf-8"?>
<!-- Generator: Adobe Illustrator 19.0.0, SVG Export Plug-In . SVG Version: 6.00 Build 0)  -->
<svg version="1.1" id="Layer_1" xmlns="http://www.w3.org/2000/svg" xmlns:xlink="http://www.w3.org/1999/xlink" x="0px" y="0px"
	 viewBox="0 0 960 560" style="enable-background:new 0 0 960 560;" xml:space="preserve">
<style type="text/css">
	.st0{fill:#3FA9F5;stroke:#000000;stroke-width:2;stroke-miterlimit:10;}
</style>
<path id="XMLID_12_" class="st0" d="M641.1,373.2c-0.7-3.1-1.6-6.1-2.6-9l10.4-7.3c-2.1-6.5-4.9-12.6-8.2-18.3l-13.7,3.2
	c-1.6-2.2-3.3-4.4-5-6.4l7.8-12.2c-4.4-5.1-9.3-9.7-14.6-13.8l-12.8,9.2c-2-1.2-4-2.4-6-3.5l2.8-15.8c-6-3-12.2-5.4-18.7-7.1
	l-8.8,14.3c-2-0.4-4.1-0.7-6.1-0.9l-3.7-16.6c-6.6-0.5-13.3-0.3-20,0.6l-2.8,17c-1,0.2-1.9,0.4-2.9,0.6c-1,0.2-1.9,0.5-2.9,0.7
	l-9.9-14.1c-6.5,2.1-12.6,4.9-18.3,8.2l3.9,16.5c-1.8,1.1-3.5,2.3-5.1,3.5l-14.2-9c-5.1,4.4-9.7,9.3-13.8,14.6l9.4,13
	c-1.4,1.9-2.7,3.8-3.9,5.7l-15.5-2.7c-3,6-5.4,12.2-7.1,18.7l12.3,7.6c-0.7,2.6-1.3,5.3-1.8,8l-13.8,3c-0.5,6.6-0.3,13.3,0.6,20
	l12.5,2c0.4,3.1,0.9,6.1,1.6,9.2c0,0.1,0,0.1,0.1,0.2l-10,7c2.1,6.5,4.9,12.6,8.2,18.3l10.6-2.5c1.8,3.2,3.8,6.3,5.9,9.2l-5.5,8.6
	c4.4,5.1,9.3,9.7,14.6,13.8l7.4-5.4c3.2,2.5,6.6,4.8,10.1,6.8l-1.5,8.6c6,3,12.2,5.4,18.7,7.1l4.2-6.8c4.2,1.1,8.4,1.9,12.8,2.4
	l1.7,7.5c6.6,0.5,13.3,0.3,20-0.6l1.2-7.3c2.2-0.3,4.4-0.7,6.5-1.2c2.2-0.5,4.3-1.1,6.4-1.7l4.3,6.1c6.5-2.1,12.6-4.9,18.3-8.2
	l-1.8-7.5c3.7-2.3,7.2-4.9,10.5-7.7l6.7,4.3c5.1-4.4,9.7-9.3,13.8-14.6l-5.1-7.1c2.3-3.4,4.3-6.9,6.1-10.5l9,1.6
	c3-6,5.4-12.2,7.1-18.7l-8.7-5.4c0.7-3.6,1.1-7.2,1.3-10.9l10.6-2.3c0.5-6.6,0.3-13.3-0.6-20l-12-1.9
	C641.1,373.4,641.1,373.3,641.1,373.2z M563.8,428.2c-22.1,5-44.1-8.8-49.1-30.9c-5-22.1,8.8-44.1,30.9-49.1
	c22.1-5,44.1,8.8,49.1,30.9C599.7,401.1,585.9,423.1,563.8,428.2z"/>
<path id="XMLID_22_" class="st0" d="M500.3,222.6c0-4.6-0.3-9.1-0.7-13.6l17.2-7c-0.9-9.9-2.9-19.5-5.7-28.7l-20.6,0.1
	c-1.5-3.7-3.2-7.3-5.1-10.8l15.1-14.9c-4.6-8.7-10.1-16.8-16.3-24.3l-21.2,8.9c-2.4-2.4-4.9-4.7-7.5-6.9l9.1-21.6
	c-7.5-6.2-15.7-11.7-24.3-16.3l-17.2,17.5c-2.8-1.2-5.6-2.3-8.4-3.3l0.2-24.8c-9.2-2.8-18.8-4.7-28.7-5.7l-9.5,23.4
	c-1.4,0-2.9-0.1-4.3-0.1s-2.9,0.1-4.3,0.1l-9.5-23.4c-9.9,0.9-19.5,2.9-28.7,5.7l0.2,24.8c-2.9,1-5.7,2.1-8.4,3.3l-17.2-17.5
	c-8.7,4.6-16.8,10.1-24.3,16.3l9.1,21.6c-2.6,2.2-5.1,4.5-7.5,6.9l-21.2-8.9c-6.2,7.5-11.7,15.7-16.3,24.3l15.1,14.9
	c-1.9,3.5-3.6,7.1-5.1,10.8l-20.6-0.1c-2.8,9.2-4.7,18.8-5.7,28.7l17.2,7c-0.5,4.5-0.7,9-0.7,13.6c0,0.1,0,0.2,0,0.3l-16.5,6.7
	c0.9,9.9,2.9,19.5,5.7,28.7l15.8-0.1c1.5,5.2,3.3,10.2,5.4,15.1l-10.7,10.5c4.6,8.7,10.1,16.8,16.3,24.3l12.3-5.2
	c3.7,4.6,7.8,9,12.1,13l-4.9,11.7c7.5,6.2,15.7,11.7,24.3,16.3l8.2-8.3c5.6,3,11.4,5.5,17.4,7.6l-0.1,11.2
	c9.2,2.8,18.8,4.7,28.7,5.7l4.1-10.1c3.2,0.2,6.4,0.4,9.7,0.4s6.5-0.2,9.7-0.4l4.1,10.1c9.9-0.9,19.5-2.9,28.7-5.7l-0.1-11.2
	c6-2.1,11.8-4.7,17.4-7.6l8.2,8.3c8.7-4.6,16.8-10.1,24.3-16.3l-4.9-11.7c4.3-4.1,8.4-8.4,12.1-13l12.3,5.2
	c6.2-7.5,11.7-15.7,16.3-24.3l-10.7-10.5c2.1-4.9,3.9-9.9,5.4-15.1l15.8,0.1c2.8-9.2,4.7-18.8,5.7-28.7l-16.5-6.7
	C500.3,222.9,500.3,222.8,500.3,222.6z M372.4,275.8c-33.1,0-60-26.8-60-60c0-33.1,26.8-60,60-60c33.1,0,60,26.8,60,60
	C432.3,249,405.5,275.8,372.4,275.8z"/>
</svg>
