<?xml version="1.0" encoding="utf-8"?>
<!-- Generator: Adobe Illustrator 19.0.0, SVG Export Plug-In . SVG Version: 6.00 Build 0)  -->
<svg version="1.1" id="Layer_1" xmlns="http://www.w3.org/2000/svg" xmlns:xlink="http://www.w3.org/1999/xlink" x="0px" y="0px"
	 viewBox="0 0 960 560" style="enable-background:new 0 0 960 560;" xml:space="preserve">
<style type="text/css">
	.st0{fill:none;stroke:#000000;stroke-width:3;stroke-miterlimit:10;}
	.st1{fill:#00A4D5;stroke:#000000;stroke-width:3;stroke-miterlimit:10;}
</style>
<path class="st0" d="M630.8,413H291.4c-8.4,0-15.3-6.9-15.3-15.3V134.3c0-8.4,6.9-15.3,15.3-15.3h339.3c8.4,0,15.3,6.9,15.3,15.3
	v263.5C646,406.1,639.1,413,630.8,413z"/>
<circle class="st1" cx="653.5" cy="393.5" r="65.5"/>
<circle class="st1" cx="652.7" cy="393.5" r="43.5"/>
<path class="st0" d="M657,364c-1-0.3-12.1-3.3-21.5,4.3c-9.2,7.4-8.9,18.6-8.8,19.7"/>
<line class="st0" x1="323.8" y1="345" x2="598.3" y2="345"/>
<rect x="336.1" y="274.5" class="st1" width="40" height="70"/>
<rect x="406.1" y="241.4" class="st1" width="40" height="103.1"/>
<rect x="476.1" y="212.7" class="st1" width="40" height="131.9"/>
<polygon class="st1" points="586.1,61.7 595.5,61.7 566.8,30.3 535.5,61.7 546.1,61.7 546.1,344.5 586.1,344.5 "/>
<line class="st0" x1="276.2" y1="375.6" x2="591.5" y2="375.6"/>
<g>
	<polygon class="st0" points="516.6,476 405.6,476 430.8,413 491.5,413 	"/>
	<rect x="388" y="476" class="st0" width="146.2" height="13.5"/>
</g>
<rect x="324.9" y="164.9" transform="matrix(0.4731 0.881 -0.881 0.4731 340.5159 -231.6567)" class="st1" width="78.1" height="7.9"/>
<rect x="292.6" y="195.9" transform="matrix(0.4731 0.881 -0.881 0.4731 337.4121 -164.5681)" class="st1" width="27.3" height="7.9"/>
<polygon class="st1" points="303.3,185.9 346.4,144.5 374.9,197.5 316.2,210 "/>
<path class="st0" d="M335.7,206.3c1.9,4.9,7.4,8.1,12.5,7c5.1-1.2,8.6-6.1,8-11.3"/>
<path class="st0" d="M332.7,206.7c2.5,6.5,9.8,11.5,16.5,10c6.7-1.5,11.2-7.9,10.3-15"/>
<line class="st0" x1="367.7" y1="155.8" x2="376.4" y2="126.9"/>
<line class="st0" x1="378.3" y1="175.5" x2="403.9" y2="183.2"/>
<line class="st0" x1="373" y1="165.7" x2="394.8" y2="154"/>
</svg>
